<svg width="135" height="118" viewBox="0 0 135 118" fill="none" xmlns="http://www.w3.org/2000/svg">
<path d="M128.115 62.8906C127.865 63.125 127.61 63.3542 127.354 63.5781C123.547 66.8385 118.62 68.4844 113.61 68.4844H34.6772C34.646 68.4271 34.5991 68.3646 34.5679 68.3021C34.4064 68.3646 34.2501 68.4323 34.0939 68.4844H22.9897C14.172 68.4844 6.02618 63.4531 2.40118 55.4167C2.37514 55.3594 2.3491 55.2969 2.32306 55.2396C0.9741 52.1979 0.172018 48.849 0.0157671 45.3698C-0.255066 39.1615 2.99494 32.0677 7.31785 27.7448C11.8179 23.25 18.4793 20.4792 24.8335 20.4427C25.7918 15.5365 28.4637 10.6094 31.771 7.30208C36.2918 2.78646 43.0054 0 49.4012 0C58.0939 0 65.3908 4.42708 69.8074 11.0312C70.2554 10.4844 70.7137 9.96875 71.1929 9.49479C75.7085 4.96875 82.422 2.19271 88.8127 2.19271C102.755 2.19271 113.073 13.5469 113.74 27C125.417 27.0521 134.057 36.6198 134.557 47.9271C134.823 53.7135 132.203 59.0521 128.115 62.8906ZM34.3543 90.7812C34.3543 95.1979 30.7762 98.7812 26.3543 98.7812C21.9376 98.7812 18.3543 95.1979 18.3543 90.7812C18.3543 88.6615 20.1876 84.6198 22.0991 80.9844C23.9012 77.5573 28.8074 77.5573 30.6095 80.9844C32.521 84.6198 34.3543 88.6615 34.3543 90.7812ZM75.2918 90.7812C75.2918 95.1979 71.7085 98.7812 67.2866 98.7812C62.8699 98.7812 59.2866 95.1979 59.2866 90.7812C59.2866 88.6615 61.1199 84.6198 63.0366 80.9844C64.8387 77.5573 69.7397 77.5573 71.5418 80.9844C73.4533 84.6198 75.2918 88.6615 75.2918 90.7812ZM116.224 90.7812C116.224 95.1979 112.641 98.7812 108.224 98.7812C103.802 98.7812 100.219 95.1979 100.219 90.7812C100.219 88.6615 102.057 84.6198 103.969 80.9844C105.771 77.5573 110.677 77.5573 112.479 80.9844C114.391 84.6198 116.224 88.6615 116.224 90.7812ZM95.7554 109.245C95.7554 113.667 92.1772 117.25 87.7554 117.25C83.3387 117.25 79.7554 113.667 79.7554 109.245C79.7554 107.13 81.5887 103.089 83.5002 99.4479C85.3022 96.0208 90.2085 96.0208 92.0106 99.4479C93.922 103.089 95.7554 107.13 95.7554 109.245ZM54.8231 109.245C54.8231 113.667 51.2397 117.25 46.8231 117.25C42.4012 117.25 38.8179 113.667 38.8179 109.245C38.8179 107.13 40.6564 103.089 42.5679 99.4479C44.3699 96.0208 49.2762 96.0208 51.0783 99.4479C52.9897 103.089 54.8231 107.13 54.8231 109.245Z" fill="black"/>
</svg>
