<svg width="124" height="36" viewBox="0 0 124 36" fill="none" xmlns="http://www.w3.org/2000/svg">
<path d="M12.4272 19.713H9.97027C8.01984 19.713 6.21714 18.5991 5.41522 16.8215C5.40947 16.8081 5.40371 16.7953 5.39732 16.7818C5.09868 16.1092 4.92218 15.3681 4.88701 14.5982C4.8269 13.2247 5.54632 11.6555 6.50299 10.6996C7.49802 9.70463 8.97203 9.09141 10.3789 9.08374C10.5906 7.99735 11.1821 6.90776 11.913 6.17625C12.9138 5.17746 14.4 4.56041 15.8139 4.56041C17.7381 4.56041 19.3521 5.54002 20.3299 7.00048C20.429 6.88027 20.5294 6.76581 20.6362 6.66094C21.6351 5.66023 23.1213 5.0451 24.5351 5.0451C27.6194 5.0451 29.9023 7.55678 30.0501 10.534C32.6336 10.5455 34.5463 12.662 34.6569 15.1641C34.7151 16.4442 34.1351 17.6252 33.2315 18.475C33.1765 18.5268 33.1202 18.5774 33.0627 18.6266C32.2211 19.3479 31.1308 19.713 30.0219 19.713H12.4272ZM12.4854 24.6455C12.4854 25.6232 11.6924 26.4161 10.7146 26.4161C9.73686 26.4161 8.9439 25.6232 8.9439 24.6455C8.9439 24.1775 9.34997 23.2829 9.77331 22.4779C10.1717 21.7202 11.2569 21.7202 11.6559 22.4779C12.0793 23.2829 12.4854 24.1775 12.4854 24.6455ZM21.543 24.6455C21.543 25.6232 20.75 26.4161 19.7723 26.4161C18.7945 26.4161 18.0015 25.6232 18.0015 24.6455C18.0015 24.1775 18.4076 23.2829 18.831 22.4779C19.2294 21.7202 20.3146 21.7202 20.7136 22.4779C21.1369 23.2829 21.543 24.1775 21.543 24.6455ZM30.6 24.6455C30.6 25.6232 29.8071 26.4161 28.8293 26.4161C27.8515 26.4161 27.0586 25.6232 27.0586 24.6455C27.0586 24.1775 27.4646 23.2829 27.888 22.4779C28.2864 21.7202 29.3716 21.7202 29.7706 22.4779C30.1939 23.2829 30.6 24.1775 30.6 24.6455ZM26.0712 28.7315C26.0712 29.7092 25.2782 30.5021 24.3005 30.5021C23.3227 30.5021 22.5297 29.7092 22.5297 28.7315C22.5297 28.2634 22.9358 27.3689 23.3591 26.5638C23.7575 25.8061 24.8427 25.8061 25.2418 26.5638C25.6651 27.3689 26.0712 28.2634 26.0712 28.7315ZM17.0142 28.7315C17.0142 29.7092 16.2212 30.5021 15.2435 30.5021C14.2657 30.5021 13.4727 29.7092 13.4727 28.7315C13.4727 28.2634 13.8788 27.3689 14.3021 26.5638C14.7005 25.8061 15.7857 25.8061 16.1848 26.5638C16.6081 27.3689 17.0142 28.2634 17.0142 28.7315ZM52.5567 8.16296C56.9755 8.16296 59.1849 10.1906 59.1849 14.2452H56.7677C56.7677 11.5596 55.3551 10.2168 52.5305 10.2168C51.3864 10.2168 50.4899 10.4771 49.8402 10.9963C49.1904 11.5161 48.8656 12.2176 48.8656 13.1013C48.8656 13.985 49.1943 14.6954 49.8536 15.1289C50.5123 15.5624 51.6729 15.9864 53.3369 16.4027C54.1688 16.6105 54.8448 16.7927 55.3647 16.9487C55.8846 17.1047 56.4473 17.3298 57.0542 17.6246C57.6604 17.9194 58.1285 18.2442 58.4578 18.5991C58.7865 18.9546 59.0641 19.4137 59.2898 19.9764C59.5149 20.5398 59.6275 21.1939 59.6275 21.9388C59.6275 23.602 59.0251 24.9282 57.8209 25.9155C56.6161 26.9034 55.0091 27.397 52.9992 27.397C50.816 27.397 49.1175 26.8426 47.9044 25.7339C46.6913 24.6251 46.0851 23.0137 46.0851 20.8998H48.5548C48.5548 22.3903 48.9449 23.5035 49.7244 24.2395C50.5039 24.9761 51.6045 25.3444 53.0254 25.3444C54.3421 25.3444 55.3602 25.0586 56.0796 24.487C56.7984 23.9153 57.1584 23.1096 57.1584 22.0699C57.1584 21.1172 56.8291 20.4323 56.1704 20.0167C55.5117 19.6011 54.3332 19.1765 52.6353 18.743C51.9421 18.5697 51.3704 18.4143 50.9196 18.2749C50.4688 18.1361 49.9796 17.9629 49.4507 17.755C48.9219 17.5472 48.4972 17.3132 48.1769 17.0536C47.8558 16.7933 47.5483 16.4864 47.2541 16.1309C46.9593 15.776 46.747 15.3604 46.6172 14.8834C46.4874 14.407 46.4221 13.8654 46.4221 13.2592C46.4221 11.7514 46.9766 10.5263 48.0854 9.58122C49.1943 8.63678 50.6849 8.16488 52.556 8.16488L52.5567 8.16296ZM67.5814 25.2389C67.9452 25.2389 68.2573 25.1961 68.5169 25.1091V26.9807C68.1179 27.0843 67.6332 27.1368 67.0615 27.1368C65.7966 27.1368 64.8821 26.8426 64.3194 26.2531C63.756 25.6642 63.4746 24.6935 63.4746 23.3417V15.6481H61.1872V13.829H63.4746V10.6318H65.762V13.829H68.3871V15.6481H65.762V23.1077C65.762 23.8706 65.9008 24.416 66.1777 24.7453C66.4546 25.0746 66.9227 25.2389 67.5814 25.2389ZM75.8729 27.3184C74.3477 27.3184 73.1736 26.8593 72.3506 25.941C71.5276 25.0228 71.1158 23.6711 71.1158 21.8864V13.829H73.4032V21.7042C73.4032 23.0387 73.6628 23.9959 74.1828 24.5765C74.7026 25.1571 75.4566 25.4474 76.444 25.4474C77.4313 25.4474 78.2288 25.088 78.8874 24.3687C79.5461 23.65 79.8754 22.6576 79.8754 21.3928V13.8296H82.1629V27.0332H79.9534V25.292H79.9017C79.486 25.9161 78.9271 26.4097 78.2249 26.7736C77.5234 27.1374 76.7388 27.3196 75.8723 27.3196L75.8729 27.3184ZM97.1351 8.5268V27.0325H94.8995V25.1091H94.8477C94.4838 25.8023 93.9422 26.3483 93.2234 26.7467C92.504 27.1451 91.6937 27.3446 90.7927 27.3446C89.1115 27.3446 87.7686 26.7167 86.764 25.4602C85.7587 24.2043 85.2561 22.5188 85.2561 20.4048C85.2561 18.2909 85.7542 16.6322 86.7505 15.3757C87.7468 14.1199 89.0853 13.4913 90.7665 13.4913C91.6503 13.4913 92.4515 13.6864 93.1709 14.0764C93.8897 14.4665 94.4314 14.9908 94.7952 15.6488H94.847V8.5268H97.1345H97.1351ZM91.365 15.3361C90.2383 15.3361 89.3372 15.7952 88.6619 16.7134C87.986 17.6323 87.6484 18.8619 87.6484 20.4042C87.6484 21.9465 87.986 23.1813 88.6619 24.1078C89.3379 25.035 90.2389 25.4985 91.365 25.4985C92.4912 25.4985 93.3314 25.0394 93.9901 24.1212C94.6482 23.203 94.9781 21.9638 94.9781 20.4042C94.9781 18.8446 94.6488 17.6099 93.9901 16.7006C93.3314 15.7907 92.4566 15.3361 91.365 15.3361ZM103.478 8.5268V11.0999H101.19V8.5268H103.478ZM103.478 13.829V27.0325H101.19V13.829H103.478ZM108.247 15.3361C109.365 14.0886 110.894 13.4645 112.834 13.4645C114.775 13.4645 116.309 14.0886 117.436 15.3361C118.562 16.5836 119.125 18.2819 119.125 20.4304C119.125 22.5789 118.562 24.2772 117.436 25.5248C116.309 26.7723 114.775 27.3964 112.834 27.3964C110.894 27.3964 109.365 26.7729 108.247 25.5248C107.129 24.2772 106.57 22.5795 106.57 20.4304C106.57 18.2813 107.129 16.5836 108.247 15.3361ZM112.835 15.3361C111.639 15.3361 110.695 15.7907 110.002 16.7006C109.308 17.6105 108.962 18.8536 108.962 20.4304C108.962 22.0073 109.308 23.2503 110.002 24.1602C110.694 25.0701 111.639 25.5248 112.835 25.5248C114.031 25.5248 115.001 25.0701 115.694 24.1602C116.387 23.2503 116.734 22.0073 116.734 20.4304C116.734 18.8536 116.387 17.6105 115.694 16.7006C115.001 15.7907 114.048 15.3361 112.835 15.3361Z" fill="black"/>
</svg>
