<svg width="36" height="36" viewBox="0 0 36 36" fill="none" xmlns="http://www.w3.org/2000/svg">
  <path d="M12.4272 19.713H9.97027C8.01984 19.713 6.21714 18.5991 5.41522 16.8215C5.40947 16.8081 5.40371 16.7953 5.39732 16.7818C5.09868 16.1092 4.92218 15.3681 4.88701 14.5982C4.8269 13.2247 5.54632 11.6555 6.50299 10.6996C7.49802 9.70463 8.97203 9.09141 10.3789 9.08374C10.5906 7.99735 11.1821 6.90776 11.913 6.17625C12.9138 5.17746 14.4 4.56041 15.8139 4.56041C17.7381 4.56041 19.3521 5.54002 20.3299 7.00048C20.429 6.88027 20.5294 6.76581 20.6362 6.66094C21.6351 5.66023 23.1213 5.0451 24.5351 5.0451C27.6194 5.0451 29.9023 7.55678 30.0501 10.534C32.6336 10.5455 34.5463 12.662 34.6569 15.1641C34.7151 16.4442 34.1351 17.6252 33.2315 18.475C33.1765 18.5268 33.1202 18.5774 33.0627 18.6266C32.2211 19.3479 31.1308 19.713 30.0219 19.713H12.4272ZM12.4854 24.6455C12.4854 25.6232 11.6924 26.4161 10.7146 26.4161C9.73686 26.4161 8.9439 25.6232 8.9439 24.6455C8.9439 24.1775 9.34997 23.2829 9.77331 22.4779C10.1717 21.7202 11.2569 21.7202 11.6559 22.4779C12.0793 23.2829 12.4854 24.1775 12.4854 24.6455ZM21.543 24.6455C21.543 25.6232 20.75 26.4161 19.7723 26.4161C18.7945 26.4161 18.0015 25.6232 18.0015 24.6455C18.0015 24.1775 18.4076 23.2829 18.831 22.4779C19.2294 21.7202 20.3146 21.7202 20.7136 22.4779C21.1369 23.2829 21.543 24.1775 21.543 24.6455ZM30.6 24.6455C30.6 25.6232 29.8071 26.4161 28.8293 26.4161C27.8515 26.4161 27.0586 25.6232 27.0586 24.6455C27.0586 24.1775 27.4646 23.2829 27.888 22.4779C28.2864 21.7202 29.3716 21.7202 29.7706 22.4779C30.1939 23.2829 30.6 24.1775 30.6 24.6455ZM26.0712 28.7315C26.0712 29.7092 25.2782 30.5021 24.3005 30.5021C23.3227 30.5021 22.5297 29.7092 22.5297 28.7315C22.5297 28.2634 22.9358 27.3689 23.3591 26.5638C23.7575 25.8061 24.8427 25.8061 25.2418 26.5638C25.6651 27.3689 26.0712 28.2634 26.0712 28.7315ZM17.0142 28.7315C17.0142 29.7092 16.2212 30.5021 15.2435 30.5021C14.2657 30.5021 13.4727 29.7092 13.4727 28.7315C13.4727 28.2634 13.8788 27.3689 14.3021 26.5638C14.7005 25.8061 15.7857 25.8061 16.1848 26.5638C16.6081 27.3689 17.0142 28.2634 17.0142 28.7315Z" fill="black"/>
</svg>
