<svg width="413" height="410" viewBox="0 0 413 410" fill="none" xmlns="http://www.w3.org/2000/svg">
<path fill-rule="evenodd" clip-rule="evenodd" d="M411.401 103H412.104V103.405L412.268 103.5L412.104 103.782V313H411.678L412.102 314.001L209.604 409.999L209.602 410.001L209.6 409.997L1.67188 310H0.104492V103.681L0 103.5L0.104492 103.439V103H0.866211L179.268 0L193.268 24.249L40.2334 112.603L206.29 192.252L372.176 112.685L219 24.249L233 0L411.401 103ZM28.1045 291.621L197 372.633V218.85L28.1045 137.839V291.621ZM225 214.332V371.297L384.104 296.04V138.018L225 214.332Z" fill="#5628E8"/>
</svg>
