<svg width="373" height="338" viewBox="0 0 373 338" fill="none" xmlns="http://www.w3.org/2000/svg">
<path d="M373 338H0V311H373V338Z" fill="#5628E8"/>
<path d="M237.297 49.4971L217.497 69.2969L201 52.7988V136H282.904L267.703 120.799L287.503 101L337 150.497L336.848 150.648L336.999 150.8L287.502 200.297L267.703 180.498L284.201 164H202V246.201L217.201 231L237 250.8L187.503 300.297L187.352 300.146L187.201 300.297L137.703 250.799L157.503 231L174 247.497V164.297H92.0957L107.297 179.498L87.4971 199.297L38 149.8L38.1514 149.647L38.001 149.497L87.498 100L107.297 119.799L90.7988 136.297H173V54.0947L157.799 69.2969L138 49.4971L187.497 0L187.647 0.150391L187.799 0L237.297 49.4971Z" fill="#5628E8"/>
</svg>
