<svg width="373" height="301" viewBox="0 0 373 301" fill="none" xmlns="http://www.w3.org/2000/svg">
<path d="M345 79H373V274H345V79Z" fill="#5628E8"/>
<path d="M28 274H373V301H0V79H28V274Z" fill="#5628E8"/>
<path fill-rule="evenodd" clip-rule="evenodd" d="M227.5 82C272.511 82 309 118.489 309 163.5C309 208.511 272.511 245 227.5 245C182.489 245 146 208.511 146 163.5C146 118.489 182.489 82 227.5 82ZM227.5 107C196.296 107 171 132.296 171 163.5C171 194.704 196.296 220 227.5 220C258.704 220 284 194.704 284 163.5C284 132.296 258.704 107 227.5 107Z" fill="#5628E8"/>
<path d="M198 54H30V27H198V54Z" fill="#5628E8"/>
<path d="M342 54H271V27H342V54Z" fill="#5628E8"/>
<path d="M271 27H198V0H271V27Z" fill="#5628E8"/>
</svg>
