<svg width="373" height="343" viewBox="0 0 373 343" fill="none" xmlns="http://www.w3.org/2000/svg">
<path d="M27 343H0V185H27V343Z" fill="#5628E8"/>
<path d="M175 343H148V185H175V343Z" fill="#5628E8"/>
<path d="M225 343H198V185H225V343Z" fill="#5628E8"/>
<path d="M373 343H346V185H373V343Z" fill="#5628E8"/>
<path d="M148 185H27V158H148V185Z" fill="#5628E8"/>
<path d="M346 185H225V158H346V185Z" fill="#5628E8"/>
<path fill-rule="evenodd" clip-rule="evenodd" d="M87.5 0C125.332 0 156 30.6685 156 68.5C156 106.332 125.332 137 87.5 137C49.6685 137 19 106.332 19 68.5C19 30.6685 49.6685 0 87.5 0ZM87.5 21C61.2665 21 40 42.2665 40 68.5C40 94.7335 61.2665 116 87.5 116C113.734 116 135 94.7335 135 68.5C135 42.2665 113.734 21 87.5 21Z" fill="#5628E8"/>
<path fill-rule="evenodd" clip-rule="evenodd" d="M285.5 0C323.332 0 354 30.6685 354 68.5C354 106.332 323.332 137 285.5 137C247.668 137 217 106.332 217 68.5C217 30.6685 247.668 0 285.5 0ZM285.5 21C259.266 21 238 42.2665 238 68.5C238 94.7335 259.266 116 285.5 116C311.734 116 333 94.7335 333 68.5C333 42.2665 311.734 21 285.5 21Z" fill="#5628E8"/>
</svg>
