<svg width="373" height="297" viewBox="0 0 373 297" fill="none" xmlns="http://www.w3.org/2000/svg">
<path d="M28 270H345V50H373V297H0V50H28V270Z" fill="#5628E8"/>
<path d="M151.508 110.41L152.621 109.036L241.489 181H319V209H233.804L232.921 210.09L151.471 144.134L71.6211 208.796L54 187.036L150.366 109L151.508 110.41Z" fill="#5628E8"/>
<path fill-rule="evenodd" clip-rule="evenodd" d="M282 69C302.435 69 319 85.5655 319 106C319 126.435 302.435 143 282 143C261.565 143 245 126.435 245 106C245 85.5655 261.565 69 282 69ZM282 90C273.163 90 266 97.1634 266 106C266 114.837 273.163 122 282 122C290.837 122 298 114.837 298 106C298 97.1634 290.837 90 282 90Z" fill="#5628E8"/>
<path d="M373 27H0V0H373V27Z" fill="#5628E8"/>
</svg>
