<svg width="373" height="350" viewBox="0 0 373 350" fill="none" xmlns="http://www.w3.org/2000/svg">
<path d="M28 323H345V49H373V350H0V49H28V323Z" fill="#5628E8"/>
<path fill-rule="evenodd" clip-rule="evenodd" d="M186.5 108C230.407 108 266 143.593 266 187.5C266 231.407 230.407 267 186.5 267C142.593 267 107 231.407 107 187.5C107 143.593 142.593 108 186.5 108ZM186.5 129C154.191 129 128 155.191 128 187.5C128 219.809 154.191 246 186.5 246C218.809 246 245 219.809 245 187.5C245 155.191 218.809 129 186.5 129Z" fill="#5628E8"/>
<path d="M291.5 49C302.27 49 311 57.7304 311 68.5C311 79.2696 302.27 88 291.5 88C280.73 88 272 79.2696 272 68.5C272 57.7304 280.73 49 291.5 49Z" fill="#5628E8"/>
<path d="M373 27H0V0H373V27Z" fill="#5628E8"/>
</svg>
