<svg width="373" height="302" viewBox="0 0 373 302" fill="none" xmlns="http://www.w3.org/2000/svg">
<path d="M373 302H0V275H373V302Z" fill="#5628E8"/>
<path d="M372.64 147.188L244.621 250.854L227 229.095L355.019 125.428L372.64 147.188Z" fill="#5628E8"/>
<path d="M145.64 21.7598L17.8848 125.213L145.64 228.667L128.019 250.428L0 146.76L17.4473 125.213L0 103.667L128.019 0L145.64 21.7598Z" fill="#5628E8"/>
<path fill-rule="evenodd" clip-rule="evenodd" d="M187 88C207.435 88 224 104.565 224 125C224 145.435 207.435 162 187 162C166.565 162 150 145.435 150 125C150 104.565 166.565 88 187 88ZM187 109C178.163 109 171 116.163 171 125C171 133.837 178.163 141 187 141C195.837 141 203 133.837 203 125C203 116.163 195.837 109 187 109Z" fill="#5628E8"/>
<path d="M372.64 103.667L355.019 125.428L227 21.7598L244.621 0L372.64 103.667Z" fill="#5628E8"/>
</svg>
